# xmcd
#
# Track frame offsets: 
#        150
#        16602
#        40370
#        66027
#        111242
#        133791
#        152291
#        171644
#        188839
#        213828
#        252332
#        268688
#        296137
#        317550
#        335964
#
# Disc length: 4798 seconds
#
# Revision: 1
# Processed by: cddbd v1.5.2PL0 Copyright (c) Steve Scherf et al.
# Submitted via: ExactAudioCopy v0.95a5
#
DISCID=e112bc0f
DTITLE=Various Artist - Akella Presents - Modern Electric Blues - vol,3  CD2
DYEAR=2007
DGENRE=Blues
TTITLE0=CHRIS REA - Love's Strange Ways
TTITLE1=MELVIN TAYLOR - I'll Play The Blues For You
TTITLE2=SCOTT HOLT - Let's Straighten It Out
TTITLE3=BIG GEORGE and The BUSINESS - Rose's Home
TTITLE4=OMAR and The HOWLERS - Sugar Ditch
TTITLE5=CHRIS ''Hammer'' SMITH - Born In Chicago
TTITLE6=SCOTT KEETON - Eye On You
TTITLE7=BOBBY MACK - Doing Alright
TTITLE8=GREGG ROLIE - Ordinary Man
TTITLE9=SNOWY WHITE - Midnight Blues
TTITLE10=RICK VITO - Last Chance to Mambo
TTITLE11=CHUCK DAY BAND - Parchman Farm
TTITLE12=ZZ TOP - Blue Jean Blues
TTITLE13=JOHN CAMPBELL TRIO - No Philisopher
TTITLE14=BLUES COMPANY - Crippled Mind
EXTD=
EXTT0=
EXTT1=
EXTT2=
EXTT3=
EXTT4=
EXTT5=
EXTT6=
EXTT7=
EXTT8=
EXTT9=
EXTT10=
EXTT11=
EXTT12=
EXTT13=
EXTT14=
PLAYORDER=
